<svg xmlns="http://www.w3.org/2000/svg" width="125.591" height="60" viewBox="0 0 125.591 60">
  <g id="Group_843" data-name="Group 843" transform="translate(-1356.885 -29.992)">
    <path id="Path_3431" data-name="Path 3431" d="M240.923,13.474a6.737,6.737,0,1,0-6.655-6.738,6.752,6.752,0,0,0,6.655,6.738" transform="translate(1174.095 29.992)" fill="#e31c79"/>
    <path id="Path_3432" data-name="Path 3432" d="M194.387,52.239a38,38,0,0,0-16.225,1.631A28.114,28.114,0,0,0,167,60.637l-.331.331-.331-.331a28.113,28.113,0,0,0-11.161-6.767,38.006,38.006,0,0,0-16.225-1.631C152.851,57.021,163,65.6,166.67,80.248c3.671-14.648,13.819-23.227,27.718-28.009" transform="translate(1248.452 -10.588)" fill="#e31c79"/>
    <path id="Path_3433" data-name="Path 3433" d="M52.142,71.653l-23.36-.024c0-9.434-4.311-15.618-12.932-18.68a32.46,32.46,0,0,0-9.191-1.158q-1.185-.029-2.491-.029v7.309c11.12,0,15.868,3.873,15.868,12.62H0v8.371H55.544a35.655,35.655,0,0,0-3.4-8.41" transform="translate(1356.885 -10.403)" fill="#0f0e4f"/>
    <path id="Path_3434" data-name="Path 3434" d="M333.272,53.962V66.069c0,3.748-1.5,5.622-4.436,5.622h-3.361a18.3,18.3,0,0,0,1.062-6.31V55.062l-8.746,2.2v8.809c0,3.748-1.5,5.622-4.436,5.622h-3.361a18.305,18.305,0,0,0,1.062-6.31V58.36l-8.809,2.2v5.135a8.714,8.714,0,0,1-.375,3.249,4,4,0,0,1-4.061,2.749L280.8,71.667a35.66,35.66,0,0,0-3.394,8.4h51.74a12.244,12.244,0,0,0,8.371-3.311c3.061-2.749,4.561-6.56,4.561-11.433V51.763Z" transform="translate(1140.395 -10.403)" fill="#0f0e4f"/>
    <path id="Path_3435" data-name="Path 3435" d="M114.465,229.778c-2.56,0-4.561-1.272-4.646-3.679h3.086a1.365,1.365,0,0,0,1.475,1.356c.848,0,1.39-.424,1.39-1.119,0-2.2-5.952-1.017-5.918-5.239,0-2.255,1.848-3.51,4.341-3.51,2.594,0,4.341,1.289,4.46,3.561h-3.137a1.288,1.288,0,0,0-1.373-1.238A1.055,1.055,0,0,0,112.922,221c0,2.068,5.884,1.136,5.884,5.121,0,2-1.56,3.662-4.341,3.662" transform="translate(1271.198 -139.787)" fill="#0f0e4f"/>
    <path id="Path_3436" data-name="Path 3436" d="M177.3,228.158h-4.443l-.712,2.1h-3.035l4.307-11.9h3.357l4.307,11.9h-3.069Zm-2.221-6.6-1.458,4.358h2.933Z" transform="translate(1224.935 -140.387)" fill="#0f0e4f"/>
    <path id="Path_3437" data-name="Path 3437" d="M254.011,218.358v11.9h-2.9l-4.849-7.342v7.342h-2.9v-11.9h2.9l4.849,7.376v-7.376Z" transform="translate(1167.001 -140.388)" fill="#e31c79"/>
    <path id="Path_3438" data-name="Path 3438" d="M319.866,228.158h-4.442l-.712,2.1h-3.035l4.307-11.9h3.357l4.307,11.9h-3.069Zm-2.221-6.6-1.458,4.358h2.933Z" transform="translate(1113.698 -140.387)" fill="#0f0e4f"/>
    <path id="Path_3439" data-name="Path 3439" d="M396.223,224.309c0,3.527-2.441,5.951-6.24,5.951h-4.056v-11.9h4.056c3.8,0,6.24,2.408,6.24,5.952m-6.426,3.442a3.459,3.459,0,1,0,0-6.918h-.97v6.918Z" transform="translate(1055.763 -140.387)" fill="#0f0e4f"/>
  </g>
</svg>
