<?xml version="1.0" encoding="utf-8"?>
<!-- Generator: Adobe Illustrator 26.0.1, SVG Export Plug-In . SVG Version: 6.00 Build 0)  -->
<svg version="1.1" id="Capa_1" xmlns="http://www.w3.org/2000/svg" xmlns:xlink="http://www.w3.org/1999/xlink" x="0px" y="0px"
	 viewBox="0 0 512 512" style="enable-background:new 0 0 512 512;" xml:space="preserve">
<style type="text/css">
	.st0{opacity:0.6;fill:#FFFFFF;}
	.st1{fill:#FFFFFF;}
</style>
<g>
	<path class="st0" d="M109.9,192.9L109.9,192.9L252,263.9c1.2,0.6,2.6,0.9,4,0.9c1.4,0,2.7-0.3,4-0.9l142.1-71.1
		c3-1.5,4.9-4.6,4.9-7.9c0-3.4-1.9-6.4-4.9-7.9L260,105.9c-2.5-1.2-5.4-1.2-7.9,0L109.9,177c-3,1.5-4.9,4.6-4.9,7.9
		C105,188.3,106.9,191.4,109.9,192.9z"/>
	<path class="st1" d="M402.1,319.1L402.1,319.1l-35.3-17.7l-98.9,49.4c-3.7,1.8-7.8,2.8-11.9,2.8c-4.1,0-8.2-1-11.9-2.8l-98.9-49.4
		l-35.3,17.7c-3,1.5-4.9,4.6-4.9,7.9c0,3.4,1.9,6.4,4.9,7.9L252,406.1c1.2,0.6,2.6,0.9,4,0.9s2.7-0.3,4-0.9L402.1,335
		c3-1.5,4.9-4.6,4.9-7.9C407,323.7,405.1,320.6,402.1,319.1z"/>
	<path class="st1" d="M402.1,248.1L402.1,248.1l-35.3-17.7l-98.9,49.4c-3.7,1.8-7.8,2.8-11.9,2.8c-4.1,0-8.2-1-11.9-2.8l-98.9-49.4
		l-35.3,17.7c-3,1.5-4.9,4.6-4.9,7.9c0,3.4,1.9,6.4,4.9,7.9L252,335c1.2,0.6,2.6,0.9,4,0.9s2.7-0.3,4-0.9l142.1-71.1
		c3-1.5,4.9-4.6,4.9-7.9C407,252.6,405.1,249.6,402.1,248.1z"/>
</g>
</svg>
