<?xml version="1.0" encoding="utf-8"?>
<!-- Generator: Adobe Illustrator 26.0.1, SVG Export Plug-In . SVG Version: 6.00 Build 0)  -->
<svg version="1.1" id="Capa_1" xmlns="http://www.w3.org/2000/svg" xmlns:xlink="http://www.w3.org/1999/xlink" x="0px" y="0px"
	 viewBox="0 0 512 512" style="enable-background:new 0 0 512 512;" xml:space="preserve">
<style type="text/css">
	.st0{opacity:0.6;}
	.st1{fill:#FFFFFF;}
</style>
<g>
	<g class="st0">
		<path class="st1" d="M327.1,105H113.9c-4.9,0-8.9,4-8.9,8.9V256c0,4.9,4,8.9,8.9,8.9h115.9c-0.3-2.9-0.5-5.9-0.5-8.9h0
			c0-9.3,1.4-18.2,3.8-26.7c-0.1,0-0.2,0-0.2,0h-23.1c-4.9,0-8.9-4-8.9-8.9c0-4.9,4-8.9,8.9-8.9h30.5c16.2-31.5,48.9-53.3,86.7-53.3
			c3,0,6,0.2,8.9,0.5v-44.9C335.9,109,332,105,327.1,105z M174.3,229.4h-24.9c-4.9,0-8.9-4-8.9-8.9c0-4.9,4-8.9,8.9-8.9h24.9
			c4.9,0,8.9,4,8.9,8.9C183.2,225.4,179.2,229.4,174.3,229.4z M211.6,184.9c0,4.9-4,8.9-8.9,8.9h-53.3c-4.9,0-8.9-4-8.9-8.9v-35.5
			c0-4.9,4-8.9,8.9-8.9h53.3c4.9,0,8.9,4,8.9,8.9V184.9z M291.5,158.3H256c-4.9,0-8.9-4-8.9-8.9c0-4.9,4-8.9,8.9-8.9h35.5
			c4.9,0,8.9,4,8.9,8.9C300.4,154.3,296.4,158.3,291.5,158.3z"/>
		<rect x="158.3" y="158.3" class="st1" width="35.5" height="17.8"/>
	</g>
	<path class="st1" d="M327.1,176.1L327.1,176.1c-44.1,0-79.9,35.9-79.9,79.9c0,18.8,6.8,35.9,17.8,49.6l-13.3,13.3l-6.3-6.3
		c-3.5-3.5-9.1-3.5-12.6,0l-48.6,48.6c-5.2,5.1-8,11.8-8,19.1c0,14.7,12,26.6,26.6,26.6c7.2,0,14-2.9,19.1-8l48.6-48.6
		c3.5-3.5,3.5-9.1,0-12.6l-6.3-6.3l13.3-13.3c13.7,10.9,30.8,17.8,49.6,17.8c44.1,0,79.9-35.9,79.9-79.9S371.1,176.1,327.1,176.1z"
		/>
</g>
</svg>
