<?xml version="1.0" encoding="utf-8"?>
<!-- Generator: Adobe Illustrator 26.0.1, SVG Export Plug-In . SVG Version: 6.00 Build 0)  -->
<svg version="1.1" id="Capa_1" xmlns="http://www.w3.org/2000/svg" xmlns:xlink="http://www.w3.org/1999/xlink" x="0px" y="0px"
	 viewBox="0 0 512 512" style="enable-background:new 0 0 512 512;" xml:space="preserve">
<style type="text/css">
	.st0{opacity:0.6;fill:#FFFFFF;}
	.st1{fill:#FFFFFF;}
</style>
<g>
	<path class="st0" d="M150,296.1c-2.2,3.5-1.7,8.1,1.2,11l53.7,53.7c2.9,2.9,7.5,3.4,11,1.2l10.7-6.8l-69.8-69.8L150,296.1z"/>
	<path class="st0" d="M151.1,238c12.8-28.1,29.3-52.3,48.9-72c1.6-1.6,3.3-3.3,5-4.9c-5.2-0.2-10.5,0.1-15.8,1.1
		c-15,2.6-28.6,9.7-39.3,20.5l-20.9,20.9c-3.5,3.5-3.5,9.1,0,12.5L151.1,238z"/>
	<polygon class="st0" points="141.5,322.6 141.5,322.6 141.5,322.6 	"/>
	<path class="st0" d="M112.6,358.7l-7.4,37.7c-0.6,2.9,0.3,5.9,2.4,8c1.7,1.7,3.9,2.6,6.3,2.6c0.6,0,1.1-0.1,1.7-0.2l37.7-7.5
		c16.5-3.3,29.7-14.2,36.2-28.9l-47.9-47.9C126.8,329,115.9,342.3,112.6,358.7z"/>
	<path class="st1" d="M404.4,107.6c-1.7-1.7-4-2.6-6.4-2.6c-1.2,0-29,0.6-65.8,9.8c-5.5,1.4-10.9,2.9-16.2,4.5l76.7,76.7
		c1.6-5.3,3.1-10.7,4.5-16.2c9.2-36.8,9.8-64.6,9.8-65.8C407,111.6,406.1,109.3,404.4,107.6z"/>
	<path class="st1" d="M272.1,136.6c-23,11.4-43.1,25.5-59.5,41.9c-18.3,18.4-33.7,41.1-45.7,67.6c-4.5,10-2.3,22,5.4,29.7l63.9,63.9
		c5.1,5.1,11.9,7.8,18.9,7.8c3.7,0,7.4-0.8,10.9-2.3c26.5-12,49.3-27.4,67.6-45.7c16.4-16.4,30.5-36.5,41.9-59.5
		c4-8.1,7.6-16.5,10.9-25.3l-89-89C288.6,129,280.1,132.6,272.1,136.6z M283.7,282.5c-3.5,3.5-9.1,3.5-12.5,0l-41.7-41.7
		c-3.5-3.5-3.5-9.1,0-12.5s9.1-3.5,12.5,0l41.7,41.7C287.2,273.5,287.2,279.1,283.7,282.5z M340.6,209.8c0,21.1-17.2,38.3-38.3,38.3
		s-38.3-17.2-38.3-38.3s17.2-38.3,38.3-38.3S340.6,188.6,340.6,209.8z"/>
	<path class="st0" d="M346,312c-19.7,19.7-43.9,36.1-72,48.9l22,22c3.5,3.5,9.1,3.5,12.5,0l20.9-20.9c10.8-10.8,17.9-24.4,20.5-39.3
		c0.9-5.2,1.3-10.5,1.1-15.8C349.3,308.6,347.7,310.3,346,312z"/>
	
		<ellipse transform="matrix(0.9732 -0.2298 0.2298 0.9732 -40.1127 75.049)" class="st1" cx="302.2" cy="209.8" rx="20.6" ry="20.6"/>
</g>
</svg>
