<?xml version="1.0" encoding="utf-8"?>
<!-- Generator: Adobe Illustrator 26.0.1, SVG Export Plug-In . SVG Version: 6.00 Build 0)  -->
<svg version="1.1" id="Capa_1" xmlns="http://www.w3.org/2000/svg" xmlns:xlink="http://www.w3.org/1999/xlink" x="0px" y="0px"
	 viewBox="0 0 512 512" style="enable-background:new 0 0 512 512;" xml:space="preserve">
<style type="text/css">
	.st0{fill:#FFFFFF;}
	.st1{opacity:0.6;fill:#FFFFFF;}
</style>
<g>
	<path class="st0" d="M247.1,256c0-9.4,1.9-18.3,4.9-26.6H113.9c-4.9,0-8.9,4-8.9,8.9v159.9c0,4.9,4,8.9,8.9,8.9h248.7
		c4.9,0,8.9-4,8.9-8.9V282.6h-97.7C259.1,282.6,247.1,270.7,247.1,256z M167.2,371.5h-17.8c-4.9,0-8.9-4-8.9-8.9s4-8.9,8.9-8.9h17.8
		c4.9,0,8.9,4,8.9,8.9S172.1,371.5,167.2,371.5z M220.5,371.5h-17.8c-4.9,0-8.9-4-8.9-8.9s4-8.9,8.9-8.9h17.8c4.9,0,8.9,4,8.9,8.9
		S225.4,371.5,220.5,371.5z M229.4,309.3c0,4.9-4,8.9-8.9,8.9h-71.1c-4.9,0-8.9-4-8.9-8.9v-35.5c0-4.9,4-8.9,8.9-8.9h71.1
		c4.9,0,8.9,4,8.9,8.9V309.3z M309.3,353.7h17.8c4.9,0,8.9,4,8.9,8.9c0,4.9-4,8.9-8.9,8.9h-17.8c-4.9,0-8.9-4-8.9-8.9
		S304.4,353.7,309.3,353.7z M282.6,362.6c0,4.9-4,8.9-8.9,8.9H256c-4.9,0-8.9-4-8.9-8.9s4-8.9,8.9-8.9h17.8
		C278.7,353.7,282.6,357.7,282.6,362.6z"/>
	<path class="st1" d="M344.8,193.8H336c19.6,0,35.5-19.9,35.5-44.4c0-24.5-15.9-44.4-35.5-44.4c-19.6,0-35.5,19.9-35.5,44.4
		c0,24.5,15.9,44.4,35.5,44.4h-8.9c-34.3,0-62.2,27.8-62.2,62.2c0,4.9,4,8.9,8.9,8.9h124.4c4.9,0,8.9-4,8.9-8.9
		C407,221.7,379.2,193.8,344.8,193.8z"/>
	<rect x="158.3" y="282.6" class="st0" width="53.3" height="17.8"/>
</g>
</svg>
