<svg xmlns="http://www.w3.org/2000/svg" xmlns:xlink="http://www.w3.org/1999/xlink" width="300" height="226.003" viewBox="0 0 300 226.003">
  <defs>
    <linearGradient id="linear-gradient" x1="0.773" x2="0.187" y2="1" gradientUnits="objectBoundingBox">
      <stop offset="0" stop-color="#e6ecf3"/>
      <stop offset="1" stop-color="#d9dde2"/>
    </linearGradient>
    <linearGradient id="linear-gradient-2" x1="1" y1="1.293" x2="0.232" y2="-0.142" gradientUnits="objectBoundingBox">
      <stop offset="0" stop-color="#eee"/>
      <stop offset="1" stop-color="#d8d8d8"/>
    </linearGradient>
    <radialGradient id="radial-gradient" cx="0.434" cy="0.347" r="0.581" gradientUnits="objectBoundingBox">
      <stop offset="0" stop-color="#ebedf0" stop-opacity="0.239"/>
      <stop offset="0.537" stop-color="#ebedf0" stop-opacity="0.847"/>
      <stop offset="1" stop-color="#e0e4e7" stop-opacity="0"/>
    </radialGradient>
    <linearGradient id="linear-gradient-3" x1="0.307" y1="0.191" x2="0.659" y2="0.61" gradientUnits="objectBoundingBox">
      <stop offset="0" stop-color="#e1e7ea"/>
      <stop offset="1" stop-color="#d0d6dc"/>
    </linearGradient>
    <linearGradient id="linear-gradient-4" x1="0.314" y1="0.249" x2="0.723" y2="0.717" xlink:href="#linear-gradient-3"/>
    <linearGradient id="linear-gradient-5" x1="0.5" y1="0.362" x2="0.791" y2="1" gradientUnits="objectBoundingBox">
      <stop offset="0" stop-color="#fbfbfb"/>
      <stop offset="1" stop-color="#d9dfe3"/>
    </linearGradient>
    <linearGradient id="linear-gradient-6" x1="0.911" y1="1" x2="-0.058" y2="-1.287" gradientUnits="objectBoundingBox">
      <stop offset="0" stop-color="#d5e1f0" stop-opacity="0"/>
      <stop offset="1" stop-color="#d9dde2"/>
    </linearGradient>
    <linearGradient id="linear-gradient-7" x1="-0.045" y1="0.309" x2="0.894" y2="0.386" gradientUnits="objectBoundingBox">
      <stop offset="0" stop-color="#f8fbff"/>
      <stop offset="1" stop-color="#d9dde2"/>
    </linearGradient>
    <clipPath id="clip-path">
      <ellipse id="Mask" cx="17.111" cy="77.424" rx="17.111" ry="77.424" transform="translate(155.308 0.462) rotate(90)" fill="url(#linear-gradient)"/>
    </clipPath>
    <linearGradient id="linear-gradient-11" x1="-0.045" y1="0.309" x2="0.894" y2="0.386" gradientUnits="objectBoundingBox">
      <stop offset="0" stop-color="#fff"/>
      <stop offset="1" stop-color="#ccd7e7"/>
    </linearGradient>
    <linearGradient id="linear-gradient-12" x1="0.215" y1="0.04" x2="0.825" y2="0.837" gradientUnits="objectBoundingBox">
      <stop offset="0" stop-color="#fdfdfd"/>
      <stop offset="1" stop-color="#d7dbe0"/>
    </linearGradient>
    <clipPath id="clip-path-2">
      <path id="Mask-2" data-name="Mask" d="M2.107,15.723a2.125,2.125,0,0,1-1.439-.548,2.16,2.16,0,0,1-.127-2.993,38.611,38.611,0,0,1,43.4-9.042c.406.129,3.013,2.091,2.362,3.4S42.127,7,42.127,7a34.3,34.3,0,0,0-38.5,8.133A2.438,2.438,0,0,1,2.107,15.723Z" transform="translate(0 0)" fill="url(#linear-gradient-2)"/>
    </clipPath>
    <linearGradient id="linear-gradient-16" x1="0.5" y1="1" x2="0.5" y2="0.007" gradientUnits="objectBoundingBox">
      <stop offset="0" stop-color="#a1a7b8"/>
      <stop offset="1" stop-color="#7b8195"/>
    </linearGradient>
    <linearGradient id="linear-gradient-17" x1="0.968" y1="0.041" x2="0.137" y2="1.116" gradientUnits="objectBoundingBox">
      <stop offset="0" stop-color="#e5e9f0"/>
      <stop offset="1" stop-color="#d2dae8"/>
    </linearGradient>
  </defs>
  <g id="error-2" transform="translate(-45.077 -455.683)">
    <path id="路径" d="M298.752,85.915C305.987,71.6,285.308,0,141.923,0c-103.5,0-151,58.6-140.5,88.3" transform="translate(45.077 593.385)" fill="url(#radial-gradient)"/>
    <ellipse id="椭圆形_copy_2" data-name="椭圆形 copy 2" cx="7.886" cy="4.38" rx="7.886" ry="4.38" transform="translate(157 629.154)" opacity="0.672" fill="url(#linear-gradient-3)"/>
    <ellipse id="椭圆形_copy_3" data-name="椭圆形 copy 3" cx="12.442" cy="6.833" rx="12.442" ry="6.833" transform="translate(236.615 637.231)" opacity="0.452" fill="url(#linear-gradient-4)"/>
    <ellipse id="椭圆形_copy_4" data-name="椭圆形 copy 4" cx="12.442" cy="6.833" rx="12.442" ry="6.833" transform="translate(91.339 601.794)" opacity="0.73" fill="url(#linear-gradient-5)"/>
    <path id="路径-2" data-name="路径" d="M298.752,85.915C305.987,71.6,285.308,0,141.923,0c-103.5,0-151,58.6-140.5,88.3" transform="translate(45.077 593.385)" fill="url(#radial-gradient)"/>
    <path id="路径_35" data-name="路径 35" d="M.654,13.052C-3.888,18.77,15.486,22.817,50.7,22.16c38.829,8.424,56.375,10.342,63.125,4.582S89.509,5.743,65.6,1.666,28.88,1.715,14.591,6.294A41.306,41.306,0,0,0,9.236,8.2C4.864,9.923,1.759,11.662.654,13.052Z" transform="translate(145.796 588.578) rotate(3)" opacity="0.716" fill="url(#linear-gradient-6)"/>
    <path id="路径_32" data-name="路径 32" d="M25.854,0s-8.292,20.613,3.733,27.085A39.552,39.552,0,0,0,13.694,39.524L0,20.324Z" transform="translate(173.283 561.84) rotate(20)" fill="url(#linear-gradient-7)"/>
    <path id="路径_34" data-name="路径 34" d="M8.355,20.306S3.674,8.653.415,5.382,19.466,0,19.466,0L10.778,20.491Z" transform="translate(152.826 593.974) rotate(-45)" fill="url(#linear-gradient-7)"/>
    <path id="Subtraction_1" data-name="Subtraction 1" d="M666.38,591.757h0A76.873,76.873,0,0,1,612.156,569.5L721.65,460.01a76.739,76.739,0,0,1,20.908,39.819,77.508,77.508,0,0,1-76.178,91.928Z" transform="translate(-528.953 8.971)" fill="url(#linear-gradient-7)"/>
    <ellipse id="Mask-3" data-name="Mask" cx="17.111" cy="77.424" rx="17.111" ry="77.424" transform="translate(180.926 457.861) rotate(45)" fill="url(#linear-gradient)"/>
    <g id="路径-3" data-name="路径" transform="translate(70.78 567.354) rotate(-45)" clip-path="url(#clip-path)">
      <path id="路径-4" data-name="路径" d="M25.224,32,11.459,0h0L0,31.645" transform="matrix(0.998, 0.07, -0.07, 0.998, 67.238, 3.141)" fill="url(#linear-gradient-11)"/>
    </g>
    <ellipse id="椭圆形" cx="11.061" cy="11.099" rx="11.061" ry="11.099" transform="translate(110.509 511.928) rotate(-45)" fill="url(#linear-gradient-12)"/>
    <path id="路径-5" data-name="路径" d="M2.112,12.024a1.953,1.953,0,0,1-1.4-.554,2.155,2.155,0,0,1-.17-3.027,25.34,25.34,0,0,1,37.612-.171,2.139,2.139,0,1,1-3.145,2.9A21.078,21.078,0,0,0,3.684,11.3a2.1,2.1,0,0,1-1.572.725Z" transform="translate(82.407 495.558) rotate(-45)" fill="url(#linear-gradient-2)"/>
    <path id="路径-6" data-name="路径" d="M2.107,9.249a2.269,2.269,0,0,1-1.348-.5A2.388,2.388,0,0,1,.463,5.595,13.971,13.971,0,0,1,11.588,0,14.053,14.053,0,0,1,22.545,5.414a2.334,2.334,0,0,1-.253,3.158,1.986,1.986,0,0,1-2.95-.271,9.9,9.9,0,0,0-7.754-3.835A9.875,9.875,0,0,0,3.75,8.437,2.1,2.1,0,0,1,2.107,9.249Z" transform="translate(97.434 501.46) rotate(-45)" fill="url(#linear-gradient-2)"/>
    <path id="Mask-4" data-name="Mask" d="M2.107,15.723a2.125,2.125,0,0,1-1.439-.548,2.16,2.16,0,0,1-.127-2.993,38.611,38.611,0,0,1,43.4-9.042c.406.129,3.013,2.091,2.362,3.4S42.127,7,42.127,7a34.3,34.3,0,0,0-38.5,8.133A2.438,2.438,0,0,1,2.107,15.723Z" transform="translate(63.466 490.955) rotate(-45)" fill="url(#linear-gradient-2)"/>
    <rect id="矩形" width="3.258" height="18.462" rx="1.629" transform="translate(116.583 455.683) rotate(45)" fill="#f80"/>
    <rect id="矩形-2" data-name="矩形" width="3.258" height="18.462" rx="1.629" transform="translate(118.887 468.737) rotate(135)" fill="#f80"/>
    <path id="路径_26" data-name="路径 26" d="M.979,0a14.739,14.739,0,0,0-.76,3.779c-.76,13.583,1.124,37.728,1.124,37.728H4.27L8.59,6.185l5.856,35.322h2.88s.38-23.391-.76-37.728A8.452,8.452,0,0,0,15.9.755Z" transform="translate(235.53 576.449)" fill="url(#linear-gradient-16)"/>
    <path id="路径_23" data-name="路径 23" d="M0,11.514l-2.552,3.742H-4.591l-5.554-9.3-2.792-2.288L-15.2.238-14.824,0l2.642,2.532.15,1.017s.419.013,1.132,0a3.23,3.23,0,0,1,1.51.51l5.554,7.269.762-1.6Z" transform="matrix(-0.017, 1, -1, -0.017, 243.079, 557.914)" fill="#ffe9e9"/>
    <path id="路径_23-2" data-name="路径 23" d="M0,8.681,2.914,12.09l1.393.743,10.9-9.861L14.757,0,4.307,8.681,1.9,6.466Z" transform="translate(252.475 554.294)" fill="#ffe9e9"/>
    <path id="路径_25" data-name="路径 25" d="M.468,5.284l4.679-1.6.936-.921V.921S5.615,0,5.147,0A49,49,0,0,0,.468,1.842,10.313,10.313,0,0,0,0,3.684,6.908,6.908,0,0,0,.468,5.284Z" transform="translate(266.922 552.029)" fill="#ffe9e9"/>
    <path id="路径-7" data-name="路径" d="M.757,0H3.805a.757.757,0,0,1,.757.757V8.3a.757.757,0,0,1-.757.757H.757A.757.757,0,0,1,0,8.3V.757A.757.757,0,0,1,.757,0Z" transform="translate(268.442 547.5)" fill="#e9e9e9"/>
    <path id="路径_24" data-name="路径 24" d="M.491.88A13.451,13.451,0,0,1,2.943,0c.491,0-1.472,1.887-1.472,1.887s0,1.887-.981,1.887S.491.88.491.88Z" transform="translate(266.922 551.275)" fill="#ffe9e9"/>
    <path id="路径_2" data-name="路径 2" d="M0,6.317l-3.022,3.774L-5.181,8.1s.9,5.866,1.3,8.781a45.809,45.809,0,0,1,0,7.692s-5.1.865-8.2,1.094A25.083,25.083,0,0,1-19.6,24.5a78.092,78.092,0,0,1,0-18.321l-5.267-1.936L-22.583,0a17.411,17.411,0,0,0,3.8.872,18.656,18.656,0,0,0,3.8,0l5.7-.594s3.711.191,4.562,1.033S0,6.317,0,6.317Z" transform="translate(255.67 554.016)" fill="url(#linear-gradient-17)"/>
    <rect id="矩形-3" data-name="矩形" width="3.217" height="4.623" transform="translate(241.795 550.142)" fill="#fececd"/>
    <path id="路径_22" data-name="路径 22" d="M0,0A9.881,9.881,0,0,1,1.287,2.646C1.287,3.3,3.217,0,3.217,0Z" transform="translate(241.795 554.766)" fill="#fececd"/>
    <path id="椭圆形-3" data-name="椭圆形" d="M3.006,9C4.162,9.06,5.78,6.75,5.78,4.5S5.176,0,3.006,0,0,2.015,0,4.5,1.85,8.938,3.006,9Z" transform="translate(240.329 544.932)" fill="#ffe9e9"/>
    <path id="路径_20" data-name="路径 20" d="M.267,6C.5,5.142.5,3.251.961,3.189a3.363,3.363,0,0,0,2.312-.4c.462-.381.694-.429.694-.621C6.278,2.626,4.9,4,6.047,5.521c.12.158.462,0,.462,0a26.068,26.068,0,0,0-.231-4.07C6.047,1.118,5.122-.224,4.66.733c0-.479-.925-.973-1.85-.606S.5,1.212.267,2.17A7.18,7.18,0,0,0,.267,6Z" transform="translate(239.78 543.932)" fill="#513450"/>
    <path id="路径_27" data-name="路径 27" d="M1.766,0,.449,1.78A2.29,2.29,0,0,0,0,3.142H0A.755.755,0,0,0,.755,3.9H4.15a.757.757,0,0,0,.757-.757V2.923a4.256,4.256,0,0,0-.424-1.851L3.965,0Z" transform="translate(235.748 617.702)" fill="#677285"/>
    <path id="路径_27_copy" data-name="路径 27 copy" d="M-1.766,0-.449,1.78A2.29,2.29,0,0,1,0,3.142H0A.755.755,0,0,1-.755,3.9H-4.15a.757.757,0,0,1-.757-.757V2.923a4.256,4.256,0,0,1,.424-1.851L-3.965,0Z" transform="translate(254.341 617.702)" fill="#677285"/>
  </g>
</svg>
