<svg id="logo" xmlns="http://www.w3.org/2000/svg" width="136.952" height="64.999" viewBox="0 0 136.952 64.999">
  <g id="Group_4471" data-name="Group 4471">
    <path id="Path_1" data-name="Path 1" d="M241.52,14.586a7.293,7.293,0,1,0-7.252-7.295,7.334,7.334,0,0,0,7.252,7.295" transform="translate(-178.128 0)" fill="#e31c79"/>
    <path id="Path_2" data-name="Path 2" d="M199.36,52.259a41.672,41.672,0,0,0-17.681,1.766,30.674,30.674,0,0,0-12.163,7.326l-.361.358-.361-.358a30.673,30.673,0,0,0-12.162-7.326,41.674,41.674,0,0,0-17.681-1.766c15.146,5.177,26.2,14.464,30.2,30.322,4-15.858,15.058-25.145,30.2-30.322" transform="translate(-105.653 -39.62)" fill="#e31c79"/>
    <path id="Path_3" data-name="Path 3" d="M56.819,73.3,31.363,73.27c0-10.212-4.7-16.908-14.092-20.222-2.12-.74-5.445-1.144-10.016-1.254q-1.291-.031-2.715-.031v7.913c12.118,0,17.292,4.193,17.292,13.662H0V82.4H60.527a38.455,38.455,0,0,0-3.707-9.1" transform="translate(0 -39.44)" fill="#0c3469"/>
    <path id="Path_4" data-name="Path 4" d="M338.283,54.144V67.251c0,4.058-1.634,6.087-4.834,6.087h-3.662a19.7,19.7,0,0,0,1.157-6.831V55.334l-9.531,2.381v9.536c0,4.058-1.634,6.087-4.834,6.087h-3.663a19.7,19.7,0,0,0,1.157-6.831v-7.6l-9.6,2.381v5.559a9.376,9.376,0,0,1-.408,3.517,4.363,4.363,0,0,1-4.425,2.976l-18.534-.026a38.465,38.465,0,0,0-3.7,9.089H333.79a13.39,13.39,0,0,0,9.122-3.584c3.336-2.976,4.97-7.1,4.97-12.377V51.763Z" transform="translate(-210.931 -39.44)" fill="#0c3469"/>
    <path id="Path_5" data-name="Path 5" d="M114.882,230.785c-2.79,0-4.97-1.377-5.063-3.983h3.363a1.484,1.484,0,0,0,1.608,1.468c.924,0,1.515-.459,1.515-1.212,0-2.386-6.486-1.1-6.449-5.672,0-2.441,2.014-3.8,4.73-3.8,2.827,0,4.73,1.4,4.86,3.855h-3.418a1.4,1.4,0,0,0-1.5-1.34,1.147,1.147,0,0,0-1.33,1.175c0,2.239,6.411,1.23,6.411,5.543,0,2.166-1.7,3.965-4.73,3.965" transform="translate(-83.502 -165.786)" fill="#0c3469"/>
    <path id="Path_6" data-name="Path 6" d="M178.036,228.967h-4.841l-.776,2.276h-3.308l4.693-12.886h3.659l4.694,12.886h-3.345Zm-2.421-7.14-1.589,4.718h3.2Z" transform="translate(-128.585 -166.373)" fill="#0c3469"/>
    <path id="Path_7" data-name="Path 7" d="M254.966,218.358v12.886h-3.159l-5.285-7.948v7.948h-3.16V218.358h3.16l5.285,7.985v-7.985Z" transform="translate(-185.043 -166.373)" fill="#e31c79"/>
    <path id="Path_8" data-name="Path 8" d="M320.6,228.967H315.76l-.776,2.276h-3.308l4.693-12.886h3.659l4.693,12.886h-3.344Zm-2.421-7.14-1.589,4.718h3.2Z" transform="translate(-236.986 -166.373)" fill="#0c3469"/>
    <path id="Path_9" data-name="Path 9" d="M397.147,224.8c0,3.818-2.66,6.443-6.8,6.443h-4.419V218.357h4.419c4.139,0,6.8,2.607,6.8,6.443m-7,3.726a3.745,3.745,0,1,0,0-7.489h-1.057v7.489Z" transform="translate(-293.444 -166.373)" fill="#0c3469"/>
  </g>
</svg>
